<svg version="1.1" id="Layer_1" xmlns="http://www.w3.org/2000/svg" xmlns:xlink="http://www.w3.org/1999/xlink" x="0px" y="0px"
	 viewBox="0 0 169.14 58.64" style="enable-background:new 0 0 169.14 58.64;" xml:space="preserve">
<g>
	<path d="M17.71,20.67c-1.34,3.2-3.25,6.01-5.74,8.42s-5.4,4.23-8.73,5.48L0,29.6c2.96-1.05,5.55-2.56,7.77-4.55
		c2.21-1.98,3.91-4.25,5.08-6.79c1.18-2.54,1.77-5.14,1.77-7.8V5.92h5.1v4.55C19.72,14.06,19.05,17.46,17.71,20.67z M33.52,9.16
		H1.86V4.02h31.66V9.16z M39.78,37.87c2.98,0.87,5.25,2.13,6.83,3.78c1.58,1.65,2.37,3.62,2.37,5.94c0,2.31-0.79,4.29-2.37,5.94
		c-1.58,1.65-3.86,2.9-6.83,3.78c-2.98,0.87-6.52,1.32-10.64,1.34c-4.08-0.02-7.6-0.47-10.56-1.34c-2.96-0.87-5.24-2.13-6.83-3.78
		c-1.59-1.65-2.39-3.62-2.39-5.94c0-2.31,0.8-4.29,2.39-5.94c1.59-1.65,3.87-2.91,6.83-3.78c2.96-0.87,6.49-1.31,10.56-1.31
		C33.26,36.56,36.81,37,39.78,37.87z M21.83,42.07c-2.06,0.49-3.63,1.21-4.71,2.14c-1.08,0.94-1.62,2.06-1.62,3.37
		c0,1.26,0.54,2.37,1.62,3.3c1.08,0.94,2.65,1.65,4.71,2.14c2.06,0.49,4.5,0.74,7.31,0.74c2.88,0,5.34-0.25,7.37-0.74
		c2.04-0.49,3.6-1.2,4.68-2.14c1.08-0.94,1.62-2.04,1.62-3.3c0-1.31-0.54-2.43-1.62-3.37c-1.08-0.94-2.64-1.65-4.68-2.14
		c-2.04-0.49-4.5-0.74-7.37-0.74C26.33,41.34,23.89,41.58,21.83,42.07z M22.6,17.58c1.13,2.32,2.77,4.39,4.91,6.21
		s4.64,3.23,7.52,4.23l-3.17,4.94c-3.29-1.16-6.14-2.87-8.54-5.13c-2.4-2.27-4.24-4.91-5.53-7.93c-1.29-3.02-1.93-6.19-1.93-9.5
		V5.92h5.04v4.48C20.9,12.86,21.46,15.26,22.6,17.58z M44.34,20.05H31.69v-5.1h12.66V20.05z M48.79,34.89h-6.21V0h6.21V34.89z"/>
	<path d="M111.25,38.13H57.82v-5.07h53.44V38.13z M83.29,17.63c-2.09,2.83-4.89,5.2-8.4,7.1c-3.51,1.9-7.41,3.18-11.71,3.86
		l-2.39-4.87c3.66-0.52,7.04-1.55,10.14-3.07c3.1-1.53,5.55-3.37,7.36-5.53C80.1,12.95,81,10.68,81,8.31V6.05h5.43v2.26
		C86.43,11.69,85.39,14.79,83.29,17.63z M106.25,8.47H62.76V3.5h43.49V8.47z M87.48,58.64h-6.12V36.5h6.12V58.64z M90.77,15.11
		c1.8,2.16,4.25,4,7.36,5.53c3.11,1.53,6.49,2.55,10.15,3.07l-2.26,4.87c-4.32-0.68-8.25-1.95-11.79-3.83
		c-3.54-1.87-6.36-4.24-8.44-7.1c-2.08-2.86-3.12-5.97-3.12-9.35V6.05h5.4v2.26C88.07,10.68,88.97,12.95,90.77,15.11z"/>
	<path d="M169.14,35.61H115.7v-5h53.44V35.61z M153.44,3.37c3.16,0.94,5.6,2.29,7.31,4.07c1.71,1.78,2.57,3.88,2.57,6.29
		c0,2.44-0.86,4.55-2.57,6.31c-1.71,1.77-4.15,3.13-7.31,4.09c-3.16,0.96-6.83,1.44-11.02,1.44c-4.25,0-7.95-0.48-11.1-1.44
		c-3.15-0.96-5.59-2.32-7.31-4.09c-1.72-1.77-2.58-3.87-2.58-6.31c0-2.42,0.86-4.52,2.58-6.29c1.72-1.78,4.16-3.13,7.31-4.07
		c3.15-0.94,6.85-1.38,11.1-1.34C146.6,1.98,150.28,2.43,153.44,3.37z M128.68,53.93h-6.21V40.35h6.21V53.93z M163.15,57.46h-40.68
		v-5.13h40.68V57.46z M134.65,7.75c-2.19,0.55-3.87,1.32-5.04,2.34c-1.17,1.01-1.75,2.23-1.75,3.65c0,1.4,0.58,2.61,1.75,3.63
		c1.17,1.03,2.84,1.8,5.04,2.34c2.19,0.53,4.78,0.8,7.77,0.8c2.96,0,5.54-0.27,7.73-0.8c2.19-0.53,3.87-1.31,5.04-2.34
		c1.17-1.02,1.75-2.23,1.75-3.63c0-1.42-0.58-2.63-1.75-3.65c-1.17-1.01-2.84-1.79-5.04-2.34c-2.19-0.54-4.77-0.82-7.73-0.82
		C139.43,6.93,136.84,7.21,134.65,7.75z"/>
</g>
</svg>
